<?xml version="1.0" standalone="no"?>
<!DOCTYPE svg PUBLIC "-//W3C//DTD SVG 20010904//EN"
 "http://www.w3.org/TR/2001/REC-SVG-20010904/DTD/svg10.dtd">
<svg version="1.0" xmlns="http://www.w3.org/2000/svg"
 width="1024.000000pt" height="1024.000000pt" viewBox="0 0 1024.000000 1024.000000"
 preserveAspectRatio="xMidYMid meet">

<g transform="translate(0.000000,1024.000000) scale(0.100000,-0.100000)"
fill="#000000" stroke="none">
<path d="M5005 8466 c-111 -35 -191 -104 -239 -206 -41 -87 -49 -215 -18 -302
27 -78 73 -141 138 -189 l54 -41 0 -88 c0 -48 -3 -108 -6 -134 l-7 -46 -52 0
c-62 0 -242 -24 -345 -46 -298 -64 -591 -172 -797 -294 l-51 -31 -121 170
c-66 93 -123 175 -126 183 -3 8 3 35 14 61 67 156 38 326 -75 448 -63 66 -116
96 -202 114 -225 47 -423 -92 -464 -326 -25 -141 40 -298 161 -391 42 -33 147
-68 200 -68 37 0 38 -1 146 -162 60 -90 117 -175 127 -189 l18 -27 -133 -115
c-72 -63 -164 -148 -203 -189 -292 -307 -512 -671 -652 -1080 -52 -150 -115
-422 -107 -459 13 -58 20 -59 357 -59 l307 0 6 58 c44 412 231 788 550 1108
207 208 389 328 649 429 216 84 157 78 937 82 675 4 700 3 800 -17 138 -28
260 -71 394 -137 345 -173 600 -415 817 -778 104 -173 199 -466 223 -687 l6
-58 309 0 c288 0 309 1 331 19 31 25 30 68 -5 223 -64 279 -192 593 -349 856
-159 266 -430 568 -705 789 l-23 18 65 89 c36 48 92 130 126 181 l61 93 67 12
c135 23 241 96 300 208 86 162 51 357 -88 485 -85 79 -146 100 -275 95 -78 -3
-110 -9 -148 -27 -189 -92 -277 -335 -190 -532 l24 -56 -127 -180 -127 -180
-131 67 c-300 155 -643 258 -966 290 -171 17 -160 6 -160 154 l0 124 34 21
c95 59 167 188 174 311 6 97 -14 166 -68 248 -50 74 -121 128 -201 153 -70 22
-174 24 -234 5z"/>
<path d="M4110 5860 c-351 -47 -656 -344 -742 -723 -30 -131 -29 -340 1 -452
23 -87 92 -239 141 -310 87 -126 223 -239 353 -294 152 -63 134 -62 1298 -59
l1054 3 70 23 c237 80 403 228 515 457 72 148 95 249 94 415 -1 114 -5 150
-28 235 -80 293 -263 524 -507 639 -158 75 -80 70 -1194 72 -550 1 -1025 -2
-1055 -6z m268 -629 c66 -34 120 -89 155 -155 27 -53 31 -71 31 -141 0 -60 -5
-91 -21 -125 -30 -67 -96 -135 -161 -167 -49 -24 -69 -28 -142 -28 -66 0 -96
5 -132 22 -66 30 -130 93 -163 160 -24 48 -28 70 -28 133 0 149 91 275 233
321 48 16 182 4 228 -20z m1751 0 c65 -34 136 -105 162 -164 33 -73 33 -202 0
-265 -34 -66 -97 -128 -160 -159 -47 -24 -69 -28 -136 -28 -97 0 -167 29 -233
96 -68 70 -87 118 -87 224 0 78 4 98 28 147 32 66 89 120 161 154 44 22 62 25
136 21 64 -2 96 -9 129 -26z"/>
<path d="M2275 4548 l-28 -22 7 -97 c13 -201 73 -477 157 -714 235 -668 683
-1196 1306 -1535 296 -162 621 -270 973 -325 141 -22 561 -31 712 -16 599 63
1150 286 1568 634 396 331 698 767 865 1247 82 238 155 585 155 740 0 116 21
110 -361 110 l-316 0 -6 -172 c-6 -199 -22 -293 -79 -468 -136 -418 -348 -720
-689 -982 -149 -114 -339 -214 -524 -276 -235 -79 -214 -77 -905 -77 -608 0
-616 0 -710 23 -214 52 -425 147 -630 283 -161 107 -378 320 -494 484 -139
196 -266 489 -318 730 -13 61 -21 150 -25 273 l-6 182 -312 0 c-306 0 -313 0
-340 -22z"/>
<path d="M4479 3650 c-75 -22 -129 -100 -129 -184 0 -53 10 -78 49 -119 54
-59 25 -57 715 -57 349 0 645 4 658 9 30 11 75 57 96 96 38 72 5 179 -71 232
l-40 28 -626 2 c-344 1 -638 -2 -652 -7z"/>
</g>
</svg>
